<svg xmlns="http://www.w3.org/2000/svg" viewBox="0 0 512 512" x="0px" y="0px"><title>System-development-bug-Service-maintenance</title><g><path d="M448,328H64V120A24.027,24.027,0,0,1,88,96H264V80H88a40.045,40.045,0,0,0-40,40V368a40.045,40.045,0,0,0,40,40h99.868l-17.143,40H136a24,24,0,0,0,0,48H376a24,24,0,0,0,0-48H341.275l-17.143-40H424a40.045,40.045,0,0,0,40-40V232H448ZM384,472a8.009,8.009,0,0,1-8,8H136a8,8,0,0,1,0-16H376A8.009,8.009,0,0,1,384,472Zm-60.132-24H188.132l17.143-40h101.45ZM424,392H88a24.027,24.027,0,0,1-24-24V344H448v24A24.027,24.027,0,0,1,424,392Z"></path><rect x="248" y="360" width="16" height="16"></rect><path d="M491.061,109.182a8,8,0,0,0,2.259-8.946l-9.571-24.884a8,8,0,0,0-7.671-5.125l-21.778.555-9.569-10.071L446.4,38.99a8,8,0,0,0-4.728-7.923L417.306,20.239a8,8,0,0,0-9.049,1.8L393.251,37.831l-13.889-.354L365.181,20.938a8,8,0,0,0-8.944-2.258l-24.885,9.571a8,8,0,0,0-5.125,7.671l.555,21.777L316.711,67.27,294.99,65.6a8,8,0,0,0-7.923,4.727L276.239,94.694a8,8,0,0,0,1.8,9.048l15.792,15.007-.355,13.889-16.537,14.18a8,8,0,0,0-2.259,8.946l9.571,24.884a8.039,8.039,0,0,0,7.671,5.125l21.778-.555,9.569,10.071L321.6,217.01a8,8,0,0,0,4.728,7.923l24.363,10.828a8,8,0,0,0,9.049-1.8l15.006-15.792,13.889.354,14.181,16.539a8,8,0,0,0,8.944,2.258l24.885-9.571a8,8,0,0,0,5.125-7.671l-.555-21.777,10.071-9.571L473.01,190.4a8,8,0,0,0,7.923-4.727l10.828-24.363a8,8,0,0,0-1.8-9.048l-15.792-15.007.355-13.889ZM460.57,146.4l14.277,13.568L468.6,174.012l-19.636-1.506a7.982,7.982,0,0,0-6.123,2.178l-15.226,14.467a8.006,8.006,0,0,0-2.487,6l.5,19.688-14.346,5.518-12.82-14.951a8,8,0,0,0-5.869-2.789l-21-.536c-.068,0-.136,0-.2,0a8,8,0,0,0-5.8,2.489l-13.567,14.277L337.988,212.6l1.506-19.635a8,8,0,0,0-2.177-6.123l-14.468-15.227a7.945,7.945,0,0,0-6-2.486l-19.688.5-5.518-14.346,14.95-12.819a8,8,0,0,0,2.79-5.869l.537-21a8,8,0,0,0-2.487-6L293.153,96.033,299.4,81.988l19.636,1.506a8.019,8.019,0,0,0,6.123-2.178l15.226-14.467a8.006,8.006,0,0,0,2.487-6l-.5-19.688,14.346-5.518,12.82,14.951A8,8,0,0,0,375.4,53.38l21,.536a7.889,7.889,0,0,0,6-2.486l13.567-14.277L430.012,43.4l-1.506,19.635a8,8,0,0,0,2.177,6.123l14.468,15.227a7.957,7.957,0,0,0,6,2.486l19.688-.5,5.518,14.346L461.41,113.53a8,8,0,0,0-2.79,5.869l-.537,21A8,8,0,0,0,460.57,146.4Z"></path><path d="M363.559,74.854a56.941,56.941,0,1,0,73.587,32.705A57.007,57.007,0,0,0,363.559,74.854ZM398.7,166.212A40.942,40.942,0,1,1,422.212,113.3,40.988,40.988,0,0,1,398.7,166.212Z"></path><path d="M125.657,170.343,107.313,152l18.344-18.343-11.314-11.314-24,24a8,8,0,0,0,0,11.314l24,24Z"></path><path d="M189.657,181.657l24-24a8,8,0,0,0,0-11.314l-24-24-11.314,11.314L196.687,152l-18.344,18.343Z"></path><rect x="119.015" y="144" width="65.97" height="16" transform="translate(-32.327 262.596) rotate(-75.964)"></rect><rect x="88" y="200" width="16" height="16"></rect><rect x="120" y="200" width="152" height="16"></rect><rect x="88" y="232" width="16" height="16"></rect><rect x="120" y="232" width="176" height="16"></rect><rect x="88" y="264" width="16" height="16"></rect><rect x="120" y="264" width="200" height="16"></rect><rect x="88" y="296" width="16" height="16"></rect><rect x="120" y="296" width="240" height="16"></rect><rect x="376" y="296" width="16" height="16"></rect><rect x="368" y="264" width="16" height="16"></rect><rect x="336" y="264" width="16" height="16"></rect><rect x="408" y="296" width="16" height="16"></rect></g></svg>